<svg version="1.1" id="Layer_1" xmlns="http://www.w3.org/2000/svg" xmlns:xlink="http://www.w3.org/1999/xlink" x="0px" y="0px"
	 width="100%" viewBox="0 0 359 338" enable-background="new 0 0 359 338" xml:space="preserve">
<path fill="#FFFFFF" opacity="1.000000" stroke="none" 
	d="
M360.000000,137.000000 
	C360.000000,204.259445 360.000000,271.518890 360.000000,339.000000 
	C294.645935,339.000000 229.291626,339.000000 163.614716,338.618622 
	C165.351471,337.825104 167.393250,337.235687 169.473007,337.029327 
	C183.919113,335.596191 197.860397,332.084076 210.787643,325.533936 
	C224.869843,318.398590 237.585724,309.185760 247.052414,296.317749 
	C254.988297,285.530640 262.772705,274.507507 265.024567,260.808746 
	C266.788116,250.080597 268.675598,239.357758 269.939270,228.565948 
	C271.891266,211.895828 272.365265,195.157425 270.630646,178.222473 
	C228.520477,178.222473 186.452499,178.222473 144.238708,178.222473 
	C144.238708,196.179977 144.238708,213.914307 144.238708,232.046082 
	C162.233032,232.046082 179.993668,232.046082 198.261429,232.046082 
	C197.788239,234.881073 197.443741,237.253464 196.991028,239.605011 
	C194.790588,251.034912 190.042908,261.465302 180.165329,267.769318 
	C165.250900,277.287872 148.322876,280.583527 131.044037,276.773926 
	C108.480904,271.799316 92.681076,258.341339 84.900795,235.970261 
	C78.879547,218.657028 77.001305,201.000671 77.880440,182.761688 
	C78.658630,166.617081 81.794159,151.212189 89.567184,137.019913 
	C95.421638,126.330643 103.971657,118.533356 115.471138,113.730499 
	C127.860481,108.555984 140.496429,107.803360 153.408813,110.054886 
	C171.777649,113.257858 185.435196,122.810242 192.186859,140.725525 
	C193.429764,144.023514 194.946976,145.128189 198.498566,145.093094 
	C218.162857,144.898727 237.830063,145.000000 257.496277,145.000000 
	C260.949219,145.000000 264.402161,145.000000 268.189453,145.000000 
	C267.039825,140.246231 265.806244,136.063522 265.032990,131.797379 
	C260.379639,106.124664 245.763046,86.677673 225.620834,71.456474 
	C204.041519,55.149288 178.586365,48.581917 151.998886,47.228966 
	C139.058456,46.570473 125.974922,48.068779 112.991859,49.058895 
	C94.110405,50.498840 76.703033,56.636181 60.908081,67.051895 
	C49.339428,74.680641 38.274261,82.972496 29.963095,94.333649 
	C14.668371,115.241142 6.451781,138.878021 2.904747,164.337173 
	C2.543566,166.929581 1.647730,169.447510 0.999999,172.000000 
	C1.000000,115.056587 1.000000,58.113174 1.000000,1.000000 
	C90.687492,1.000000 180.375092,1.000000 270.400513,1.343402 
	C269.825592,4.235587 268.283234,6.745986 268.125031,9.340770 
	C267.740753,15.643871 268.228912,21.999498 267.862885,28.304775 
	C267.750153,30.246908 266.445770,32.594421 264.942383,33.896580 
	C259.353546,38.737331 253.265717,43.007393 247.741028,47.914806 
	C244.269928,50.998089 245.245132,55.980515 249.444504,58.054119 
	C252.055283,59.343292 254.903854,60.308235 257.752258,60.932621 
	C273.187866,64.316223 276.970825,67.952492 278.091919,82.821701 
	C278.434296,87.362587 280.161255,92.071251 285.023956,93.299606 
	C289.615204,94.459396 293.116272,91.168922 295.615845,87.620422 
	C298.159454,84.009399 299.853485,79.786270 302.496094,76.263695 
	C304.127472,74.089058 306.668976,71.565994 309.093658,71.215042 
	C315.808655,70.243088 322.736481,70.774429 329.467529,69.871574 
	C336.427063,68.938080 339.396637,66.074448 335.329620,59.821674 
	C332.921631,56.119560 330.456421,52.377357 327.490051,49.135242 
	C323.750153,45.047665 321.803833,41.008018 323.763977,35.331982 
	C325.791870,29.459747 327.255035,23.382002 328.762543,17.343554 
	C330.212555,11.535394 328.813293,9.267036 323.239807,10.181996 
	C316.681122,11.258687 310.092651,13.114574 303.996521,15.744129 
	C299.115356,17.849621 295.731506,16.357845 292.217621,13.681479 
	C286.758850,9.523779 281.400757,5.233867 276.000000,1.000003 
	C303.943695,1.000000 331.887421,1.000000 360.000000,1.000000 
	C360.000000,45.354084 360.000000,89.708382 359.682831,134.380066 
	C356.032898,132.712189 352.901733,130.165848 349.318329,128.878067 
	C344.400116,127.110580 343.112152,124.020081 342.806885,119.141579 
	C342.575989,115.451447 340.587738,111.871284 339.381592,108.242180 
	C336.232513,110.017921 331.833862,111.025932 330.178833,113.719635 
	C325.951233,120.600357 320.039673,119.280487 313.907562,118.978371 
	C311.177734,118.843895 308.403839,119.604691 305.649933,119.959137 
	C306.153778,122.863922 306.599792,125.780746 307.200287,128.665421 
	C307.358978,129.427734 307.962311,130.111847 308.415161,130.796356 
	C312.603180,137.126984 312.369080,138.575439 308.650116,144.946350 
	C306.949493,147.859589 304.787933,152.195343 305.818512,154.615829 
	C307.373322,158.267593 311.951416,157.297394 315.565582,156.053696 
	C316.941284,155.580307 318.605652,155.703293 319.799072,154.988129 
	C323.332703,152.870514 325.607788,154.757858 327.991577,157.012009 
	C330.490356,159.374893 332.947906,161.845947 335.745148,163.812088 
	C339.163574,166.214828 341.819763,165.190277 342.797882,161.151352 
	C343.526917,158.140762 343.345764,154.907364 344.098785,151.905853 
	C344.589783,149.948898 345.623260,147.742905 347.120117,146.497375 
	C351.213440,143.091278 355.680786,140.134644 360.000000,137.000000 
z"/>
<path fill="#21351C" opacity="1.000000" stroke="none" 
	d="
M0.999999,172.468658 
	C1.647730,169.447510 2.543566,166.929581 2.904747,164.337173 
	C6.451781,138.878021 14.668371,115.241142 29.963095,94.333649 
	C38.274261,82.972496 49.339428,74.680641 60.908081,67.051895 
	C76.703033,56.636181 94.110405,50.498840 112.991859,49.058895 
	C125.974922,48.068779 139.058456,46.570473 151.998886,47.228966 
	C178.586365,48.581917 204.041519,55.149288 225.620834,71.456474 
	C245.763046,86.677673 260.379639,106.124664 265.032990,131.797379 
	C265.806244,136.063522 267.039825,140.246231 268.189453,145.000000 
	C264.402161,145.000000 260.949219,145.000000 257.496277,145.000000 
	C237.830063,145.000000 218.162857,144.898727 198.498566,145.093094 
	C194.946976,145.128189 193.429764,144.023514 192.186859,140.725525 
	C185.435196,122.810242 171.777649,113.257858 153.408813,110.054886 
	C140.496429,107.803360 127.860481,108.555984 115.471138,113.730499 
	C103.971657,118.533356 95.421638,126.330643 89.567184,137.019913 
	C81.794159,151.212189 78.658630,166.617081 77.880440,182.761688 
	C77.001305,201.000671 78.879547,218.657028 84.900795,235.970261 
	C92.681076,258.341339 108.480904,271.799316 131.044037,276.773926 
	C148.322876,280.583527 165.250900,277.287872 180.165329,267.769318 
	C190.042908,261.465302 194.790588,251.034912 196.991028,239.605011 
	C197.443741,237.253464 197.788239,234.881073 198.261429,232.046082 
	C179.993668,232.046082 162.233032,232.046082 144.238708,232.046082 
	C144.238708,213.914307 144.238708,196.179977 144.238708,178.222473 
	C186.452499,178.222473 228.520477,178.222473 270.630646,178.222473 
	C272.365265,195.157425 271.891266,211.895828 269.939270,228.565948 
	C268.675598,239.357758 266.788116,250.080597 265.024567,260.808746 
	C262.772705,274.507507 254.988297,285.530640 247.052414,296.317749 
	C237.585724,309.185760 224.869843,318.398590 210.787643,325.533936 
	C197.860397,332.084076 183.919113,335.596191 169.473007,337.029327 
	C167.393250,337.235687 165.351471,337.825104 163.146057,338.618622 
	C146.645767,339.000000 130.291550,339.000000 113.458931,338.578674 
	C112.384552,337.772980 111.820694,337.119507 111.187836,337.043976 
	C97.782211,335.443451 85.011002,331.735657 72.641563,326.297333 
	C55.409725,318.721222 42.959900,305.534485 31.153103,291.604584 
	C13.940692,271.297089 5.989887,247.204422 2.927969,221.168518 
	C2.642020,218.737061 1.659238,216.387558 1.000000,214.000000 
	C1.000000,200.312439 1.000000,186.624878 0.999999,172.468658 
z"/>
<path fill="#70A9B9" opacity="1.000000" stroke="none" 
	d="
M275.583344,1.000003 
	C281.400757,5.233867 286.758850,9.523779 292.217621,13.681479 
	C295.731506,16.357845 299.115356,17.849621 303.996521,15.744129 
	C310.092651,13.114574 316.681122,11.258687 323.239807,10.181996 
	C328.813293,9.267036 330.212555,11.535394 328.762543,17.343554 
	C327.255035,23.382002 325.791870,29.459747 323.763977,35.331982 
	C321.803833,41.008018 323.750153,45.047665 327.490051,49.135242 
	C330.456421,52.377357 332.921631,56.119560 335.329620,59.821674 
	C339.396637,66.074448 336.427063,68.938080 329.467529,69.871574 
	C322.736481,70.774429 315.808655,70.243088 309.093658,71.215042 
	C306.668976,71.565994 304.127472,74.089058 302.496094,76.263695 
	C299.853485,79.786270 298.159454,84.009399 295.615845,87.620422 
	C293.116272,91.168922 289.615204,94.459396 285.023956,93.299606 
	C280.161255,92.071251 278.434296,87.362587 278.091919,82.821701 
	C276.970825,67.952492 273.187866,64.316223 257.752258,60.932621 
	C254.903854,60.308235 252.055283,59.343292 249.444504,58.054119 
	C245.245132,55.980515 244.269928,50.998089 247.741028,47.914806 
	C253.265717,43.007393 259.353546,38.737331 264.942383,33.896580 
	C266.445770,32.594421 267.750153,30.246908 267.862885,28.304775 
	C268.228912,21.999498 267.740753,15.643871 268.125031,9.340770 
	C268.283234,6.745986 269.825592,4.235587 270.869202,1.343402 
	C272.388885,1.000000 273.777802,1.000000 275.583344,1.000003 
z"/>
<path fill="#FFFFFF" opacity="1.000000" stroke="none" 
	d="
M1.000000,214.468658 
	C1.659238,216.387558 2.642020,218.737061 2.927969,221.168518 
	C5.989887,247.204422 13.940692,271.297089 31.153103,291.604584 
	C42.959900,305.534485 55.409725,318.721222 72.641563,326.297333 
	C85.011002,331.735657 97.782211,335.443451 111.187836,337.043976 
	C111.820694,337.119507 112.384552,337.772980 112.990273,338.578674 
	C75.735695,339.000000 38.471397,339.000000 1.000000,339.000000 
	C1.000000,297.645996 1.000000,256.291656 1.000000,214.468658 
z"/>
<path fill="#CFDF56" opacity="1.000000" stroke="none" 
	d="
M360.000000,136.666672 
	C355.680786,140.134644 351.213440,143.091278 347.120117,146.497375 
	C345.623260,147.742905 344.589783,149.948898 344.098785,151.905853 
	C343.345764,154.907364 343.526917,158.140762 342.797882,161.151352 
	C341.819763,165.190277 339.163574,166.214828 335.745148,163.812088 
	C332.947906,161.845947 330.490356,159.374893 327.991577,157.012009 
	C325.607788,154.757858 323.332703,152.870514 319.799072,154.988129 
	C318.605652,155.703293 316.941284,155.580307 315.565582,156.053696 
	C311.951416,157.297394 307.373322,158.267593 305.818512,154.615829 
	C304.787933,152.195343 306.949493,147.859589 308.650116,144.946350 
	C312.369080,138.575439 312.603180,137.126984 308.415161,130.796356 
	C307.962311,130.111847 307.358978,129.427734 307.200287,128.665421 
	C306.599792,125.780746 306.153778,122.863922 305.649933,119.959137 
	C308.403839,119.604691 311.177734,118.843895 313.907562,118.978371 
	C320.039673,119.280487 325.951233,120.600357 330.178833,113.719635 
	C331.833862,111.025932 336.232513,110.017921 339.381592,108.242180 
	C340.587738,111.871284 342.575989,115.451447 342.806885,119.141579 
	C343.112152,124.020081 344.400116,127.110580 349.318329,128.878067 
	C352.901733,130.165848 356.032898,132.712189 359.682831,134.848724 
	C360.000000,135.444443 360.000000,135.888901 360.000000,136.666672 
z"/>
</svg>